<svg width="381" height="292" viewBox="0 0 381 292" fill="none" xmlns="http://www.w3.org/2000/svg">
<path d="M85.3108 0C98.0275 20.788 114.056 27.2581 129.664 44.578C130.292 65.68 122.484 83.0882 121.35 109.168L142.867 127.785L150.788 48.6343C126.635 31.365 106.092 20.7373 85.3139 0.00289266L85.3108 0ZM0.82959 16.2093C16.7287 27.3174 35.6419 36.6557 60.628 48.122L90.4611 131.838L163.062 211.626L269.856 239.489L312.494 275.455L372.292 291.413C383.356 293.536 382.84 284.98 376.518 279.381L333.879 259.497L257.054 187.689L167.293 159.826L111.852 111.955L86.2443 40.1476L0.835327 16.2107L0.82959 16.2093ZM228.929 44.578C233.154 52.6841 233.154 56.7375 233.154 60.7873C224.707 60.7873 221.89 63.4893 212.034 64.8404C207.809 60.7873 203.587 56.7343 195.139 52.6809C196.548 58.085 199.365 64.8404 199.365 68.8902C199.365 72.9433 196.548 79.6987 195.139 85.0994C203.587 81.0463 207.812 81.0463 212.034 76.9933C221.89 78.3444 220.481 81.0465 233.154 81.0465C233.154 85.0996 230.338 89.1525 228.929 93.2059C234.56 90.5039 241.602 89.1528 245.824 85.0999C266.944 85.0999 283.842 81.0468 288.064 72.9404C283.839 60.7809 268.662 56.7311 245.824 56.7311C241.599 52.678 237.376 48.625 228.929 44.5716V44.578ZM307.602 95.3635C309.523 99.0492 309.582 100.867 309.582 102.709C305.743 102.709 304.426 103.995 299.948 104.608C298.026 102.766 296.132 100.878 292.293 99.0376C292.932 101.494 294.273 104.541 294.273 106.383C294.273 108.226 292.932 111.4 292.293 113.856C296.132 112.013 298.03 111.9 299.948 110.057C304.429 110.671 303.825 111.957 309.582 111.957C309.582 113.8 308.242 115.688 307.602 117.528C310.163 116.301 313.472 115.699 315.39 113.856C324.989 113.856 332.609 111.968 334.53 108.285C332.609 102.76 325.77 100.94 315.39 100.94C313.468 99.0968 311.441 97.2088 307.602 95.366V95.3635ZM182.464 125.632L175.204 153.746L229.325 170.588L238.038 140.447L182.464 125.632ZM254.405 144.755L245.431 175.529L253.484 178.062C260.098 176.326 264.907 170.795 266.949 166.157C269.413 158.995 266.569 150.272 258.502 145.894L254.409 144.755L254.405 144.755ZM297.173 178.316C289.934 178.037 282.786 183.166 274.467 192.754L299.021 215.676C315.494 206.25 318.35 191.188 305.488 180.973C302.662 179.272 299.893 178.418 297.173 178.314L297.173 178.316ZM110.651 218.845C114.876 226.951 114.876 231.004 114.876 235.054C106.429 235.054 95.1639 237.756 85.3082 239.107C81.083 235.054 76.8609 231.001 68.4135 226.947C69.8219 232.352 72.6388 239.107 72.6388 243.157C72.6388 247.21 69.8219 253.965 68.4135 259.366C76.8609 255.313 81.0864 255.313 85.3082 251.26C95.1639 252.611 102.203 255.313 114.876 255.313C114.876 259.366 112.059 263.419 110.651 267.473C116.281 264.77 123.324 263.419 127.545 259.366C148.666 259.366 169.786 259.366 178.233 247.207C169.786 230.998 150.38 230.998 127.545 230.998C123.32 226.945 119.098 222.892 110.651 218.838V218.845Z" fill="#0E0E0E"/>
</svg>
